0
SECTION
2
HEADER
9
$INSUNITS
70
1
9
$ACADVER
1
AC1014
9
$HANDSEED
5
FFFF
0
ENDSEC
0
SECTION
2
TABLES
0
TABLE
2
VPORT
5
8
100
AcDbSymbolTable
0
ENDTAB
0
TABLE
2
LTYPE
5
5
100
AcDbSymbolTable
0
LTYPE
5
14
100
AcDbSymbolTableRecord
100
AcDbLinetypeTableRecord
2
BYBLOCK
70
0
0
LTYPE
5
15
100
AcDbSymbolTableRecord
100
AcDbLinetypeTableRecord
2
BYLAYER
70
0
0
LTYPE
5
16
100
AcDbSymbolTableRecord
100
AcDbLinetypeTableRecord
2
DASHED
70
0
3
Dashed __ __ __ __ __ __ __ __ __ __ __ __ __ _
72
65
73
2
40
0.75
49
0.5
74
0
49
-0.25
74
0
0
ENDTAB
0
TABLE
2
LAYER
5
2
100
AcDbSymbolTable
70
2
0
LAYER
5
50
100
AcDbSymbolTableRecord
100
AcDbLayerTableRecord
2
0
70
0
62
7
6
CONTINUOUS
0
ENDTAB
0
TABLE
2
STYLE
5
3
100
AcDbSymbolTable
70
1
0
STYLE
5
11
100
AcDbSymbolTableRecord
100
AcDbTextStyleTableRecord
2
STANDARD
70
0
0
ENDTAB
0
TABLE
2
VIEW
5
6
100
AcDbSymbolTable
70
0
0
ENDTAB
0
TABLE
2
UCS
5
7
100
AcDbSymbolTable
70
0
0
ENDTAB
0
TABLE
2
APPID
5
9
100
AcDbSymbolTable
70
2
0
APPID
5
12
100
AcDbSymbolTableRecord
100
AcDbRegAppTableRecord
2
ACAD
70
0
0
ENDTAB
0
TABLE
2
DIMSTYLE
5
A
100
AcDbSymbolTable
70
1
0
ENDTAB
0
TABLE
2
BLOCK_RECORD
5
1
100
AcDbSymbolTable
70
1
0
BLOCK_RECORD
5
1F
100
AcDbSymbolTableRecord
100
AcDbBlockTableRecord
2
*MODEL_SPACE
0
BLOCK_RECORD
5
1B
100
AcDbSymbolTableRecord
100
AcDbBlockTableRecord
2
*PAPER_SPACE
0
ENDTAB
0
ENDSEC
0
SECTION
2
BLOCKS
0
BLOCK
5
20
100
AcDbEntity
100
AcDbBlockBegin
2
*MODEL_SPACE
0
ENDBLK
5
21
100
AcDbEntity
100
AcDbBlockEnd
0
BLOCK
5
1C
100
AcDbEntity
100
AcDbBlockBegin
2
*PAPER_SPACE
0
ENDBLK
5
1D
100
AcDbEntity
100
AcDbBlockEnd
0
ENDSEC
0
SECTION
2
ENTITIES
0
LWPOLYLINE
5
100
100
AcDbEntity
8
OUTER_PROFILES
100
AcDbPolyline
90
44
70
1
43
0.0
10
20.953703756664545
20
4.8916448821614829
10
20.046703756664538
20
3.9846448821614748
10
19.947366596958037
20
3.9396448821614944
10
17.31819801710478
20
3.9396448821614944
10
17.31819801710478
20
4.2005057395597651
10
16.753198017104783
20
4.2005057395597634
10
16.753198017104786
20
3.635505739559767
10
17.014058874503053
20
3.635505739559767
10
17.014058874503053
20
1.0063371597065081
10
16.96905887450302
20
0.90699999999999281
10
16.06205887450303
20
0
10
0
20
0
10
-0.90700000000000125
20
0.90699999999999981
10
-0.95199999999999008
20
1.0063371597065052
10
-0.95199999999999008
20
3.635505739559767
10
-0.69113914260171938
20
3.635505739559767
10
-0.69113914260171938
20
4.2005057395597651
10
-1.2561391426017243
20
4.2005057395597651
10
-1.2561391426017243
20
3.9396448821614944
10
-3.8853077224549737
20
3.9396448821614944
10
-3.9846448821614819
20
3.9846448821614748
10
-4.8916448821614882
20
4.891644882161482
10
-4.8916448821614882
20
10.833355882648803
10
-3.9846448821614846
20
11.740355882648808
10
-3.8853077224549737
20
11.785355882648789
10
-1.2561391426017243
20
11.785355882648789
10
-1.2561391426017243
20
11.524495025250518
10
-0.69113914260171938
20
11.524495025250518
10
-0.69113914260171938
20
12.089495025250518
10
-0.9519999999999873
20
12.089495025250518
10
-0.9519999999999873
20
14.718663605103774
10
-0.90700000000000403
20
14.818000764810277
10
0
20
15.725000764810281
10
16.06205887450303
20
15.725000764810281
10
16.969058874503038
20
14.818000764810268
10
17.014058874503053
20
14.718663605103774
10
17.014058874503053
20
12.089495025250518
10
16.753198017104786
20
12.089495025250518
10
16.753198017104783
20
11.52449502525052
10
17.31819801710478
20
11.52449502525052
10
17.31819801710478
20
11.785355882648789
10
19.947366596958037
20
11.785355882648789
10
20.046703756664535
20
11.74035588264881
10
20.953703756664545
20
10.833355882648801
0
CIRCLE
5
101
100
AcDbEntity
8
INTERIOR_PROFILES
100
AcDbCircle
10
2.3733077224548929
20
9.142355882648781
30
0
40
0.10000000000000052
210
0
220
0
230
-1
0
CIRCLE
5
102
100
AcDbEntity
8
INTERIOR_PROFILES
100
AcDbCircle
10
2.3733077224548897
20
9.6923558826487817
30
0
40
0.099999999999999117
210
0
220
0
230
-1
0
CIRCLE
5
103
100
AcDbEntity
8
INTERIOR_PROFILES
100
AcDbCircle
10
2.3733077224548844
20
10.242355882648782
30
0
40
0.099999999999999117
210
0
220
0
230
-1
0
CIRCLE
5
104
100
AcDbEntity
8
INTERIOR_PROFILES
100
AcDbCircle
10
2.3733077224548786
20
10.792355882648783
30
0
40
0.10000000000000052
210
0
220
0
230
-1
0
CIRCLE
5
105
100
AcDbEntity
8
INTERIOR_PROFILES
100
AcDbCircle
10
2.3733077224548733
20
11.342355882648782
30
0
40
0.10000000000000052
210
0
220
0
230
-1
0
CIRCLE
5
106
100
AcDbEntity
8
INTERIOR_PROFILES
100
AcDbCircle
10
1.8733077224548944
20
9.1423558826487774
30
0
40
0.099999999999999117
210
0
220
0
230
-1
0
CIRCLE
5
107
100
AcDbEntity
8
INTERIOR_PROFILES
100
AcDbCircle
10
1.8733077224548915
20
9.6923558826487763
30
0
40
0.099999999999999117
210
0
220
0
230
-1
0
CIRCLE
5
108
100
AcDbEntity
8
INTERIOR_PROFILES
100
AcDbCircle
10
1.873307722454886
20
10.242355882648775
30
0
40
0.099999999999999117
210
0
220
0
230
-1
0
CIRCLE
5
109
100
AcDbEntity
8
INTERIOR_PROFILES
100
AcDbCircle
10
1.8733077224548804
20
10.792355882648776
30
0
40
0.10000000000000052
210
0
220
0
230
-1
0
CIRCLE
5
110
100
AcDbEntity
8
INTERIOR_PROFILES
100
AcDbCircle
10
1.8733077224548749
20
11.342355882648777
30
0
40
0.099999999999999117
210
0
220
0
230
-1
0
CIRCLE
5
111
100
AcDbEntity
8
INTERIOR_PROFILES
100
AcDbCircle
10
1.3733077224548931
20
9.1423558826487721
30
0
40
0.099999999999999117
210
0
220
0
230
-1
0
CIRCLE
5
112
100
AcDbEntity
8
INTERIOR_PROFILES
100
AcDbCircle
10
1.3733077224548904
20
9.6923558826487728
30
0
40
0.10000000000000052
210
0
220
0
230
-1
0
CIRCLE
5
113
100
AcDbEntity
8
INTERIOR_PROFILES
100
AcDbCircle
10
1.3733077224548849
20
10.242355882648772
30
0
40
0.10000000000000052
210
0
220
0
230
-1
0
CIRCLE
5
114
100
AcDbEntity
8
INTERIOR_PROFILES
100
AcDbCircle
10
1.3733077224548791
20
10.792355882648772
30
0
40
0.099999999999999117
210
0
220
0
230
-1
0
CIRCLE
5
115
100
AcDbEntity
8
INTERIOR_PROFILES
100
AcDbCircle
10
1.3733077224548735
20
11.342355882648771
30
0
40
0.099999999999999117
210
0
220
0
230
-1
0
CIRCLE
5
116
100
AcDbEntity
8
INTERIOR_PROFILES
100
AcDbCircle
10
2.373307722454904
20
6.5826448821615013
30
0
40
0.099999999999999117
210
0
220
0
230
-1
0
CIRCLE
5
117
100
AcDbEntity
8
INTERIOR_PROFILES
100
AcDbCircle
10
2.373307722454904
20
6.0326448821615015
30
0
40
0.099999999999999811
210
0
220
0
230
-1
0
CIRCLE
5
118
100
AcDbEntity
8
INTERIOR_PROFILES
100
AcDbCircle
10
2.373307722454904
20
5.4826448821615008
30
0
40
0.099999999999999811
210
0
220
0
230
-1
0
CIRCLE
5
119
100
AcDbEntity
8
INTERIOR_PROFILES
100
AcDbCircle
10
2.373307722454904
20
4.9326448821615019
30
0
40
0.099999999999999811
210
0
220
0
230
-1
0
CIRCLE
5
120
100
AcDbEntity
8
INTERIOR_PROFILES
100
AcDbCircle
10
2.373307722454904
20
4.3826448821615021
30
0
40
0.099999999999999811
210
0
220
0
230
-1
0
CIRCLE
5
121
100
AcDbEntity
8
INTERIOR_PROFILES
100
AcDbCircle
10
1.8733077224549055
20
6.5826448821615013
30
0
40
0.099999999999999117
210
0
220
0
230
-1
0
CIRCLE
5
122
100
AcDbEntity
8
INTERIOR_PROFILES
100
AcDbCircle
10
1.8733077224549055
20
6.0326448821615015
30
0
40
0.099999999999999811
210
0
220
0
230
-1
0
CIRCLE
5
123
100
AcDbEntity
8
INTERIOR_PROFILES
100
AcDbCircle
10
1.8733077224549055
20
5.4826448821615017
30
0
40
0.099999999999999811
210
0
220
0
230
-1
0
CIRCLE
5
124
100
AcDbEntity
8
INTERIOR_PROFILES
100
AcDbCircle
10
1.8733077224549055
20
4.9326448821615019
30
0
40
0.099999999999999811
210
0
220
0
230
-1
0
CIRCLE
5
125
100
AcDbEntity
8
INTERIOR_PROFILES
100
AcDbCircle
10
1.8733077224549055
20
4.3826448821615021
30
0
40
0.099999999999999811
210
0
220
0
230
-1
0
CIRCLE
5
126
100
AcDbEntity
8
INTERIOR_PROFILES
100
AcDbCircle
10
1.3733077224549044
20
6.5826448821615013
30
0
40
0.099999999999999117
210
0
220
0
230
-1
0
CIRCLE
5
127
100
AcDbEntity
8
INTERIOR_PROFILES
100
AcDbCircle
10
1.3733077224549044
20
6.0326448821615015
30
0
40
0.099999999999999811
210
0
220
0
230
-1
0
CIRCLE
5
128
100
AcDbEntity
8
INTERIOR_PROFILES
100
AcDbCircle
10
1.3733077224549044
20
5.4826448821615017
30
0
40
0.099999999999999811
210
0
220
0
230
-1
0
CIRCLE
5
129
100
AcDbEntity
8
INTERIOR_PROFILES
100
AcDbCircle
10
1.3733077224549044
20
4.9326448821615019
30
0
40
0.099999999999999811
210
0
220
0
230
-1
0
CIRCLE
5
130
100
AcDbEntity
8
INTERIOR_PROFILES
100
AcDbCircle
10
1.3733077224549044
20
4.3826448821615021
30
0
40
0.099999999999999811
210
0
220
0
230
-1
0
CIRCLE
5
131
100
AcDbEntity
8
INTERIOR_PROFILES
100
AcDbCircle
10
-8.0310294372514939
20
3.556337159706473
30
0
40
0.10000000000000052
210
0
220
0
230
-1
0
CIRCLE
5
132
100
AcDbEntity
8
INTERIOR_PROFILES
100
AcDbCircle
10
-8.0310294372514957
20
3.0063371597064736
30
0
40
0.10000000000000052
210
0
220
0
230
-1
0
CIRCLE
5
133
100
AcDbEntity
8
INTERIOR_PROFILES
100
AcDbCircle
10
-8.0310294372514957
20
2.4563371597064716
30
0
40
0.10000000000000052
210
0
220
0
230
-1
0
CIRCLE
5
134
100
AcDbEntity
8
INTERIOR_PROFILES
100
AcDbCircle
10
-8.0310294372514974
20
1.9063371597064722
30
0
40
0.10000000000000052
210
0
220
0
230
-1
0
CIRCLE
5
135
100
AcDbEntity
8
INTERIOR_PROFILES
100
AcDbCircle
10
-8.0310294372514974
20
1.3563371597064728
30
0
40
0.10000000000000052
210
0
220
0
230
-1
0
CIRCLE
5
136
100
AcDbEntity
8
INTERIOR_PROFILES
100
AcDbCircle
10
-8.0310294372514939
20
12.168663605103774
30
0
40
0.10000000000000052
210
0
220
0
230
-1
0
CIRCLE
5
137
100
AcDbEntity
8
INTERIOR_PROFILES
100
AcDbCircle
10
-8.0310294372514957
20
12.718663605103774
30
0
40
0.10000000000000052
210
0
220
0
230
-1
0
CIRCLE
5
138
100
AcDbEntity
8
INTERIOR_PROFILES
100
AcDbCircle
10
-8.0310294372514957
20
13.268663605103772
30
0
40
0.10000000000000052
210
0
220
0
230
-1
0
CIRCLE
5
139
100
AcDbEntity
8
INTERIOR_PROFILES
100
AcDbCircle
10
-8.0310294372514974
20
13.818663605103774
30
0
40
0.10000000000000052
210
0
220
0
230
-1
0
CIRCLE
5
140
100
AcDbEntity
8
INTERIOR_PROFILES
100
AcDbCircle
10
-8.0310294372514974
20
14.368663605103777
30
0
40
0.10000000000000052
210
0
220
0
230
-1
0
CIRCLE
5
141
100
AcDbEntity
8
INTERIOR_PROFILES
100
AcDbCircle
10
-18.43536659695803
20
9.142355882648781
30
0
40
0.10000000000000052
210
0
220
0
230
-1
0
CIRCLE
5
142
100
AcDbEntity
8
INTERIOR_PROFILES
100
AcDbCircle
10
-18.435366596958026
20
9.6923558826487817
30
0
40
0.099999999999999117
210
0
220
0
230
-1
0
CIRCLE
5
143
100
AcDbEntity
8
INTERIOR_PROFILES
100
AcDbCircle
10
-18.435366596958019
20
10.242355882648782
30
0
40
0.099999999999999117
210
0
220
0
230
-1
0
CIRCLE
5
144
100
AcDbEntity
8
INTERIOR_PROFILES
100
AcDbCircle
10
-18.435366596958016
20
10.792355882648783
30
0
40
0.10000000000000052
210
0
220
0
230
-1
0
CIRCLE
5
145
100
AcDbEntity
8
INTERIOR_PROFILES
100
AcDbCircle
10
-18.435366596958012
20
11.342355882648782
30
0
40
0.10000000000000052
210
0
220
0
230
-1
0
CIRCLE
5
146
100
AcDbEntity
8
INTERIOR_PROFILES
100
AcDbCircle
10
-17.935366596958033
20
9.1423558826487774
30
0
40
0.099999999999999117
210
0
220
0
230
-1
0
CIRCLE
5
147
100
AcDbEntity
8
INTERIOR_PROFILES
100
AcDbCircle
10
-17.935366596958026
20
9.6923558826487763
30
0
40
0.099999999999999117
210
0
220
0
230
-1
0
CIRCLE
5
148
100
AcDbEntity
8
INTERIOR_PROFILES
100
AcDbCircle
10
-17.935366596958023
20
10.242355882648775
30
0
40
0.099999999999999117
210
0
220
0
230
-1
0
CIRCLE
5
149
100
AcDbEntity
8
INTERIOR_PROFILES
100
AcDbCircle
10
-17.935366596958019
20
10.792355882648776
30
0
40
0.10000000000000052
210
0
220
0
230
-1
0
CIRCLE
5
150
100
AcDbEntity
8
INTERIOR_PROFILES
100
AcDbCircle
10
-17.935366596958012
20
11.342355882648777
30
0
40
0.099999999999999117
210
0
220
0
230
-1
0
CIRCLE
5
151
100
AcDbEntity
8
INTERIOR_PROFILES
100
AcDbCircle
10
-17.43536659695803
20
9.1423558826487721
30
0
40
0.099999999999999117
210
0
220
0
230
-1
0
CIRCLE
5
152
100
AcDbEntity
8
INTERIOR_PROFILES
100
AcDbCircle
10
-17.435366596958026
20
9.6923558826487728
30
0
40
0.10000000000000052
210
0
220
0
230
-1
0
CIRCLE
5
153
100
AcDbEntity
8
INTERIOR_PROFILES
100
AcDbCircle
10
-17.435366596958019
20
10.242355882648772
30
0
40
0.10000000000000052
210
0
220
0
230
-1
0
CIRCLE
5
154
100
AcDbEntity
8
INTERIOR_PROFILES
100
AcDbCircle
10
-17.435366596958016
20
10.792355882648772
30
0
40
0.099999999999999117
210
0
220
0
230
-1
0
CIRCLE
5
155
100
AcDbEntity
8
INTERIOR_PROFILES
100
AcDbCircle
10
-17.435366596958012
20
11.342355882648771
30
0
40
0.099999999999999117
210
0
220
0
230
-1
0
CIRCLE
5
156
100
AcDbEntity
8
INTERIOR_PROFILES
100
AcDbCircle
10
-18.43536659695804
20
6.5826448821615013
30
0
40
0.099999999999999117
210
0
220
0
230
-1
0
CIRCLE
5
157
100
AcDbEntity
8
INTERIOR_PROFILES
100
AcDbCircle
10
-18.43536659695804
20
6.0326448821615015
30
0
40
0.099999999999999811
210
0
220
0
230
-1
0
CIRCLE
5
158
100
AcDbEntity
8
INTERIOR_PROFILES
100
AcDbCircle
10
-18.43536659695804
20
5.4826448821615008
30
0
40
0.099999999999999811
210
0
220
0
230
-1
0
CIRCLE
5
159
100
AcDbEntity
8
INTERIOR_PROFILES
100
AcDbCircle
10
-18.43536659695804
20
4.9326448821615019
30
0
40
0.099999999999999811
210
0
220
0
230
-1
0
CIRCLE
5
160
100
AcDbEntity
8
INTERIOR_PROFILES
100
AcDbCircle
10
-18.43536659695804
20
4.3826448821615021
30
0
40
0.099999999999999811
210
0
220
0
230
-1
0
CIRCLE
5
161
100
AcDbEntity
8
INTERIOR_PROFILES
100
AcDbCircle
10
-17.935366596958044
20
6.5826448821615013
30
0
40
0.099999999999999117
210
0
220
0
230
-1
0
CIRCLE
5
162
100
AcDbEntity
8
INTERIOR_PROFILES
100
AcDbCircle
10
-17.935366596958044
20
6.0326448821615015
30
0
40
0.099999999999999811
210
0
220
0
230
-1
0
CIRCLE
5
163
100
AcDbEntity
8
INTERIOR_PROFILES
100
AcDbCircle
10
-17.935366596958044
20
5.4826448821615017
30
0
40
0.099999999999999811
210
0
220
0
230
-1
0
CIRCLE
5
164
100
AcDbEntity
8
INTERIOR_PROFILES
100
AcDbCircle
10
-17.935366596958044
20
4.9326448821615019
30
0
40
0.099999999999999811
210
0
220
0
230
-1
0
CIRCLE
5
165
100
AcDbEntity
8
INTERIOR_PROFILES
100
AcDbCircle
10
-17.935366596958044
20
4.3826448821615021
30
0
40
0.099999999999999811
210
0
220
0
230
-1
0
CIRCLE
5
166
100
AcDbEntity
8
INTERIOR_PROFILES
100
AcDbCircle
10
-17.435366596958044
20
6.5826448821615013
30
0
40
0.099999999999999117
210
0
220
0
230
-1
0
CIRCLE
5
167
100
AcDbEntity
8
INTERIOR_PROFILES
100
AcDbCircle
10
-17.435366596958044
20
6.0326448821615015
30
0
40
0.099999999999999811
210
0
220
0
230
-1
0
CIRCLE
5
168
100
AcDbEntity
8
INTERIOR_PROFILES
100
AcDbCircle
10
-17.435366596958044
20
5.4826448821615017
30
0
40
0.099999999999999811
210
0
220
0
230
-1
0
CIRCLE
5
169
100
AcDbEntity
8
INTERIOR_PROFILES
100
AcDbCircle
10
-17.435366596958044
20
4.9326448821615019
30
0
40
0.099999999999999811
210
0
220
0
230
-1
0
CIRCLE
5
170
100
AcDbEntity
8
INTERIOR_PROFILES
100
AcDbCircle
10
-17.435366596958044
20
4.3826448821615021
30
0
40
0.099999999999999811
210
0
220
0
230
-1
0
CIRCLE
5
171
100
AcDbEntity
8
INTERIOR_PROFILES
100
AcDbCircle
10
-18.548032307031409
20
7.8625003824051491
30
0
40
0.53124999999999933
210
0
220
0
230
-1
0
LINE
5
172
100
AcDbEntity
8
BEND
100
AcDbLine
10
16.753198017104786
20
11.806995025250522
30
-5.2711302019810805e-14
11
-0.69113914260171938
21
11.806995025250522
31
-5.271617575168046e-14
0
LINE
5
173
100
AcDbEntity
8
BEND
100
AcDbLine
10
-0.92949999999999566
20
0.95666857985325249
30
-1.1232701297490059e-14
11
16.991558874503038
21
0.95666857985325537
31
6.3574908856096909e-14
0
LINE
5
174
100
AcDbEntity
8
BEND
100
AcDbLine
10
-0.97363914260172046
20
11.524495025250518
30
-5.0375277003169006e-14
11
-0.97363914260172046
21
4.2005057395597651
31
-5.0375277003169006e-14
0
LINE
5
175
100
AcDbEntity
8
BEND
100
AcDbLine
10
19.997035176811181
20
3.9621448821614358
30
2.7614716090129395e-13
11
19.997035176811181
21
11.762855882648848
31
-2.7633292656487236e-13
0
LINE
5
176
100
AcDbEntity
8
BEND
100
AcDbLine
10
-0.69113914260171938
20
3.9180057395597627
30
-5.2711302019810767e-14
11
16.753198017104786
21
3.9180057395597627
31
-5.271617575168046e-14
0
LINE
5
177
100
AcDbEntity
8
BEND
100
AcDbLine
10
-3.93497630230824
20
11.762855882648793
30
-1.9138380920098669e-13
11
-3.93497630230824
21
3.9621448821614886
31
-1.4258780370087239e-14
0
LINE
5
178
100
AcDbEntity
8
BEND
100
AcDbLine
10
16.991558874503045
20
14.76833218495703
30
-1.1232443000341216e-14
11
-0.92949999999999566
21
14.76833218495703
31
6.4071846893794773e-14
0
LINE
5
179
100
AcDbEntity
8
BEND
100
AcDbLine
10
17.035698017104789
20
4.2005057395597634
30
-5.3172689348681226e-14
11
17.035698017104789
21
11.52449502525052
31
-5.3172689348681226e-14
0
LINE
5
180
100
AcDbEntity
8
BEND_EXTENT
100
AcDbLine
10
20.046703756664535
20
11.74035588264881
30
-5.315083456473191e-14
11
20.046703756664538
21
3.9846448821614748
31
-5.315083456473191e-14
0
LINE
5
181
100
AcDbEntity
8
BEND_EXTENT
100
AcDbLine
10
19.947366596958037
20
3.9396448821614944
30
-5.315083456473191e-14
11
19.947366596958037
21
11.785355882648789
31
-5.315083456473191e-14
0
LINE
5
182
100
AcDbEntity
8
BEND_EXTENT
100
AcDbLine
10
-3.9846448821614819
20
3.9846448821614748
30
-5.3150834564731891e-14
11
-3.9846448821614846
21
11.740355882648808
31
-5.3150834564731891e-14
0
LINE
5
183
100
AcDbEntity
8
BEND_EXTENT
100
AcDbLine
10
-3.8853077224549737
20
11.785355882648789
30
-5.3150834564731891e-14
11
-3.8853077224549737
21
3.9396448821614944
31
-5.3150834564731891e-14
0
LINE
5
184
100
AcDbEntity
8
BEND_EXTENT
100
AcDbLine
10
16.96905887450302
20
0.90699999999999281
30
-5.315083456473191e-14
11
-0.90700000000000125
21
0.90699999999999981
31
-5.3150834564731898e-14
0
LINE
5
185
100
AcDbEntity
8
BEND_EXTENT
100
AcDbLine
10
-0.95199999999999008
20
1.0063371597065052
30
-5.3150834564731898e-14
11
17.014058874503053
21
1.0063371597065081
31
-5.315083456473191e-14
0
LINE
5
186
100
AcDbEntity
8
BEND_EXTENT
100
AcDbLine
10
-0.90700000000000403
20
14.818000764810277
30
-5.3150834564731898e-14
11
16.969058874503038
21
14.818000764810268
31
-5.315083456473191e-14
0
LINE
5
187
100
AcDbEntity
8
BEND_EXTENT
100
AcDbLine
10
17.014058874503053
20
14.718663605103774
30
-5.315083456473191e-14
11
-0.9519999999999873
21
14.718663605103774
31
-5.3150834564731898e-14
0
LINE
5
188
100
AcDbEntity
8
BEND_EXTENT
100
AcDbLine
10
17.085366596958039
20
11.52449502525052
30
-5.0353422219219703e-14
11
17.085366596958039
21
4.2005057395597634
31
-5.0353422219219703e-14
0
LINE
5
189
100
AcDbEntity
8
BEND_EXTENT
100
AcDbLine
10
-0.69113914260171938
20
11.856663605103776
30
-5.3150834564731898e-14
11
16.753198017104786
21
11.856663605103776
31
-5.3150834564731898e-14
0
LINE
5
190
100
AcDbEntity
8
BEND_EXTENT
100
AcDbLine
10
-1.023307722454976
20
4.2005057395597651
30
-4.755600987370749e-14
11
-1.023307722454976
21
11.524495025250518
31
-4.755600987370749e-14
0
LINE
5
191
100
AcDbEntity
8
BEND_EXTENT
100
AcDbLine
10
16.753198017104786
20
3.8683371597065084
30
-5.3150834564731898e-14
11
-0.69113914260171938
21
3.8683371597065084
31
-5.3150834564731898e-14
0
LINE
5
192
100
AcDbEntity
8
BEND_EXTENT
100
AcDbLine
10
16.753198017104783
20
11.757326445397267
30
-5.315083456473191e-14
11
-0.69113914260171938
21
11.757326445397267
31
-5.3150834564731898e-14
0
LINE
5
193
100
AcDbEntity
8
BEND_EXTENT
100
AcDbLine
10
-0.69113914260171661
20
3.9676743194130166
30
-5.3150834564731898e-14
11
16.753198017104786
21
3.9676743194130166
31
-5.315083456473191e-14
0
LINE
5
194
100
AcDbEntity
8
BEND_EXTENT
100
AcDbLine
10
16.986029437251535
20
4.2005057395597634
30
-5.315083456473191e-14
11
16.986029437251535
21
11.52449502525052
31
-5.315083456473191e-14
0
LINE
5
195
100
AcDbEntity
8
BEND_EXTENT
100
AcDbLine
10
-0.9239705627484649
20
11.524495025250518
30
-5.3150834564731898e-14
11
-0.9239705627484649
21
4.2005057395597651
31
-5.3150834564731898e-14
0
ENDSEC
0
SECTION
2
OBJECTS
0
DICTIONARY
5
C
100
AcDbDictionary
3
ACAD_GROUP
350
D
3
ACAD_MLINESTYLE
350
17
0
DICTIONARY
5
D
100
AcDbDictionary
0
DICTIONARY
5
1A
330
C
100
AcDbDictionary
0
DICTIONARY
5
17
100
AcDbDictionary
0
ENDSEC
0
EOF
